<?xml version="1.0" standalone="no"?>
<!DOCTYPE svg PUBLIC "-//W3C//DTD SVG 1.1//EN" "http://www.w3.org/Graphics/SVG/1.1/DTD/svg11.dtd" >
<svg xmlns="http://www.w3.org/2000/svg">
<metadata>Generated by IcoMoon</metadata>
<defs>
<font id="icomoon" horiz-adv-x="1024">
<font-face units-per-em="1024" ascent="960" descent="-64" />
<missing-glyph horiz-adv-x="1024" />
<glyph unicode="&#x20;" horiz-adv-x="512" d="" />
<glyph unicode="&#xe900;" glyph-name="add" d="M981.080 379.275h-264.663c-10.326 0-18.697 8.371-18.697 18.697s8.371 18.697 18.697 18.697h264.664c10.326 0 18.697-8.371 18.697-18.697s-8.372-18.697-18.698-18.697zM848.747 246.94c-10.326 0-18.697 8.371-18.697 18.697v264.665c0 10.326 8.371 18.697 18.697 18.697s18.697-8.371 18.697-18.697v-264.665c-0.001-10.326-8.371-18.697-18.697-18.697zM695.003-12.561c-3.519 0-7.078 0.992-10.24 3.067-35.496 23.292-93.529 25.561-97.13 25.679h-22.073l-35.288-0.271c-0.048 0-0.095 0-0.143 0h-477.814c-10.326 0-18.697 8.371-18.697 18.697v22.468c-0.318 6.267-0.911 40.604 21.004 78.307 13.716 23.598 33.431 43.861 58.599 60.226 30.494 19.829 69.117 33.909 114.798 41.849 0.233 0.040 0.467 0.076 0.701 0.107 0.347 0.047 35.5 4.859 71.208 14.272 61.895 16.319 67.308 30.744 67.346 30.885 0.364 1.431 0.894 2.805 1.574 4.095 0.508 2.701 1.764 12.859-0.638 40.080-6.101 69.141-42.122 110-71.066 142.832-9.125 10.352-17.745 20.128-24.383 29.716-28.64 41.374-31.298 88.419-31.397 90.401-0.015 0.311-0.023 0.622-0.023 0.933 0 18.781 9.364 27.421 17.626 35.043l0.433 0.399c0.272 0.251 0.443 0.438 0.543 0.558 0.094 1.342-0.568 4.749-1.015 7.051-0.169 0.868-0.338 1.74-0.499 2.616-7.177 38.995-7.667 99.204-1.173 137.844 2.41 50.81 46.227 89.712 48.107 91.357 0.070 0.061 0.14 0.122 0.211 0.181 6.291 5.342 12.673 11.176 16.728 17.64 0.487 0.776 0.828 1.377 1.067 1.837-0.306 0.787-0.742 1.794-1.095 2.608-2.436 5.619-6.118 14.109-4.024 25.024 1.264 6.589 6.078 18.363 24.119 23.175 7.261 1.937 15.024 2.333 20.692 2.622l1.122 0.058c22.388 1.178 46.273 2.176 70.43 0.324 174.731-13.396 234.92-78.686 237.397-81.459 0.14-0.156 0.276-0.314 0.409-0.475 13.991-16.762 24.354-37.639 30.8-62.055 2.009-7.597 3.303-13.995 4.057-20.073 6.109-35.489 5.087-71.917 3.781-96.272-0.731-13.669-2.255-28.024-4.798-45.174-0.692-4.656 0.069-5.565 0.355-5.907 0.758-0.908 1.686-1.893 2.67-2.936 3.86-4.097 9.148-9.708 11.962-18.71 1.416-4.538 2.073-9.389 2.073-15.278 0-0.312-0.008-0.623-0.023-0.935-0.099-1.983-2.76-49.026-31.399-90.397-6.639-9.59-15.261-19.369-24.388-29.723-28.941-32.831-64.961-73.689-71.061-142.827-2.402-27.22-1.144-37.378-0.638-40.079 0.679-1.291 1.21-2.665 1.574-4.095 0.037-0.141 5.471-14.614 67.648-30.964 35.705-9.389 70.558-14.146 70.906-14.193 0.304-0.041 0.607-0.090 0.909-0.145 46.096-8.55 84.957-22.992 115.506-42.924 25.252-16.476 44.93-36.702 58.49-60.114 21.502-37.129 20.627-70.715 20.196-77.444v-22.333c0-10.326-8.371-18.697-18.697-18.697h-126.001c-1.087 0-2.153 0.093-3.189 0.271h-29.053c-10.326 0-18.697 8.371-18.697 18.697s8.371 18.697 18.697 18.697h52.092c1.087 0 2.152-0.093 3.188-0.271h84.267v4.311c0 0.687 0.009 1.106 0.082 1.769 0.104 1.508 1.627 28.332-16.349 58.131-10.82 17.937-26.59 33.609-46.87 46.581-26.101 16.693-59.762 28.968-100.053 36.483-4.637 0.643-39.012 5.564-75.082 15.060-70.761 18.629-87.962 39.352-93.188 54.394-4.005 7.766-6.246 23.194-2.986 60.155 7.181 81.369 49.42 129.282 80.262 164.267 8.746 9.922 16.301 18.491 21.693 26.281 21.358 30.856 24.47 66.34 24.769 70.567-0.029 2.19-0.239 3.195-0.368 3.609-0.241 0.773-1.891 2.522-3.485 4.216-1.253 1.328-2.67 2.834-4.139 4.59-7.95 9.504-10.783 21.079-8.66 35.385 2.368 15.963 3.781 29.207 4.448 41.683 1.215 22.649 2.185 56.446-3.364 88.341-0.057 0.326-0.105 0.655-0.145 0.984-0.533 4.462-1.532 9.378-3.143 15.469-4.985 18.879-12.727 34.767-23.011 47.233-1.714 1.748-15.385 15.125-45.884 29.676-54.883 26.183-120.791 35.849-166.417 39.348-21.933 1.68-44.437 0.732-65.609-0.383l-1.179-0.060c-1.768-0.090-4.739-0.242-7.562-0.526 2.449-5.841 5.453-14.633 2.297-25.136-1.187-3.945-3.006-7.799-5.726-12.132-6.727-10.724-15.918-19.23-24.048-26.141-1.571-1.417-34.228-31.342-35.353-65.737-0.029-0.871-0.118-1.738-0.267-2.595-5.971-34.301-5.569-90.777 0.895-125.897 0.139-0.751 0.286-1.508 0.432-2.26 1.984-10.21 5.305-27.298-10.876-42.222l-0.435-0.401c-2.087-1.925-4.944-4.562-5.417-5.47v0c0.003 0-0.133-0.427-0.165-1.584 0.328-4.296 3.654-40.060 24.764-70.556 5.391-7.784 12.944-16.352 21.689-26.272 30.842-34.986 73.082-82.901 80.264-164.272 3.26-36.959 1.019-52.389-2.986-60.156-5.225-15.042-22.427-35.765-93.188-54.394-36.365-9.574-71.006-14.497-75.189-15.074-40.523-7.078-74.33-19.29-100.488-36.3-20.211-13.143-35.908-29.182-46.655-47.67-17.631-30.333-16.022-57.212-16.001-57.475 0.041-0.499 0.060-1.002 0.060-1.504v-4.309l494.323 0.271c0.047 0 0.095 0 0.143 0h22.424c0.141 0 0.28-0.001 0.422-0.005 2.896-0.064 71.45-1.943 116.954-31.803 8.634-5.665 11.039-17.255 5.374-25.889-3.592-5.475-9.562-8.444-15.65-8.444zM373.653 292.665c-0.49-0.396-0.937-0.795-1.342-1.192 0.427 0.416 0.875 0.816 1.342 1.192zM591.041 292.637c0.45-0.365 0.883-0.75 1.297-1.154-0.392 0.384-0.824 0.772-1.297 1.154z" />
<glyph unicode="&#xe901;" glyph-name="back" d="M710.154 951.020l-444.147-451.712c-14.352-14.622-23.21-34.679-23.21-56.805 0-22.555 9.206-42.961 24.065-57.664l446.2-441.058c4.826-4.623 11.387-7.47 18.612-7.47 14.869 0 26.923 12.054 26.923 26.923 0 7.333-2.931 13.98-7.686 18.836l0.005-0.005-446.193 441.051c-4.996 4.945-8.089 11.804-8.089 19.386 0 7.42 2.963 14.148 7.771 19.065l-0.005-0.005 444.147 451.712c5.241 4.924 8.506 11.9 8.506 19.638 0 14.869-12.054 26.923-26.923 26.923-7.899 0-15.003-3.402-19.928-8.82l-0.020-0.022z" />
<glyph unicode="&#xe902;" glyph-name="close" d="M525.269 449.162l392.832 394.61c7.177 7.209 7.15 18.872-0.059 26.049-7.21 7.176-18.871 7.152-26.049-0.059l-392.714-394.492-392.715 394.493c-7.177 7.209-18.84 7.236-26.049 0.059s-7.236-18.84-0.059-26.049l392.833-394.611-392.833-394.609c-7.176-7.209-7.151-18.872 0.059-26.049 3.594-3.577 8.295-5.365 12.995-5.365 4.728 0 9.455 1.809 13.054 5.425l392.715 394.492 392.715-394.492c3.6-3.615 8.327-5.425 13.054-5.425 4.7 0 9.402 1.788 12.995 5.365 7.209 7.177 7.236 18.84 0.059 26.049l-392.833 394.609z" />
<glyph unicode="&#xe903;" glyph-name="delete" d="M398.754 125.609c-10.326 0-18.697 8.371-18.697 18.697v487.036c0 10.326 8.371 18.697 18.697 18.697s18.697-8.371 18.697-18.697v-487.036c0-10.326-8.371-18.697-18.697-18.697zM633.89 125.609c-10.326 0-18.697 8.371-18.697 18.697v487.036c0 10.326 8.371 18.697 18.697 18.697s18.697-8.371 18.697-18.697v-487.036c0-10.326-8.371-18.697-18.697-18.697zM710.575-25.684c-4.028 0-8.083 1.296-11.501 3.967-26.989 21.096-80.084 25.731-98.264 25.735h-27.973c-0.037 0-0.074 0-0.109 0l-39.437 0.233h-299.509c-0.336 0-0.67 0.009-1.006 0.027-22.538 1.215-35.688 11.191-42.75 19.346-15.238 17.597-14.937 40.31-14.604 45.898v641.709c0 10.326 8.371 18.697 18.697 18.697s18.697-8.371 18.697-18.697v-642.356c0-0.66 0-0.968-0.067-1.597-0.213-3.462 0.394-13.353 5.654-19.301 3.352-3.791 8.564-5.864 15.922-6.332h299.030c0.037 0 0.074 0 0.109 0l39.437-0.233h27.914c3.2-0.001 78.735-0.404 121.287-33.668 8.135-6.36 9.575-18.109 3.216-26.245-3.687-4.716-9.187-7.184-14.743-7.184zM798.81 4.019h-24.015c-10.326 0-18.697 8.371-18.697 18.697s8.371 18.697 18.697 18.697h21.841c0.641 0.102 1.287 0.171 1.937 0.206 7.677 0.413 13.071 2.535 16.491 6.484 6.094 7.039 5.561 18.983 5.55 19.098-0.050 0.557-0.075 1.116-0.075 1.676v642.355c0 10.326 8.371 18.697 18.697 18.697h49.271c0.076 0 0.121 0 0.173 0.003 0.047 0.003-0.020 0.007 0.063 0.002 6.862 0.255 6.854 4.354 6.848 7.357v92.055c0 3.505-2.85 6.357-6.353 6.357h-214.925c-5.020-0.021-42.352 0.751-71.784 32.65-0.141 0.152-0.278 0.307-0.413 0.464-9.723 11.267-23.842 17.333-41.969 18.032h-86.94c-18.125-0.699-32.24-6.764-41.962-18.031-0.136-0.158-0.274-0.312-0.415-0.465-29.434-31.899-66.769-32.681-71.786-32.65h-214.926c-3.505 0-6.356-2.852-6.356-6.357v-92.016c-0.006-3.038-0.013-7.141 6.852-7.394 0.087 0.006 0.017 0.001 0.062-0.002 0.052-0.002 0.095-0.002 0.173-0.003h49.268c10.326 0 18.697-8.371 18.697-18.697s-8.371-18.697-18.697-18.697h-49.134c-3.727-0.057-19.807 0.533-32.125 12.626-5.714 5.611-12.521 15.753-12.489 32.202v91.981c0 24.123 19.626 43.75 43.749 43.75h214.998c0.29 0 0.27 0.005 0.499-0.005 1.974 0 24.967 0.446 43.547 20.42 11.642 13.381 33.026 29.456 69.042 30.72 0.219 0.008 0.437 0.012 0.656 0.012h87.629c0.219 0 0.437-0.004 0.656-0.012 36.020-1.264 57.405-17.338 69.050-30.719 18.577-19.972 41.569-20.42 43.546-20.42 0.23 0.011 0.211 0.005 0.499 0.005h214.999c24.121 0 43.745-19.627 43.745-43.75v-92.016c0.033-16.413-6.771-26.555-12.486-32.167-12.318-12.094-28.39-12.678-32.125-12.627h-30.441v-623.010c0.335-5.586 0.639-28.301-14.6-45.899-6.844-7.904-19.405-17.519-40.691-19.208-1.26-0.266-2.544-0.399-3.833-0.399z" />
<glyph unicode="&#xe904;" glyph-name="down" d="M508.025 304.553c-14.453 0-28.183 5.781-39.023 15.898l-231.249 231.249c-10.117 10.117-10.117 26.016 0 36.133s26.016 10.117 36.133 0l231.249-231.249c2.168-2.168 4.336-2.168 5.781 0l231.972 231.972c10.117 10.117 26.016 10.117 35.41 0 10.117-10.117 10.117-26.016 0-36.133l-231.972-231.972c-9.394-10.117-23.125-15.898-38.301-15.898z" />
<glyph unicode="&#xe905;" glyph-name="duihuan" d="M114.27 445.111c0 56.005 10.965 110.324 32.588 161.447 20.891 49.39 50.801 93.751 88.901 131.851s82.461 68.010 131.85 88.901c51.124 21.623 105.442 32.588 161.447 32.588 85.196 0 167.892-26.2 237.124-74.461l-99.871-16.831c-10.992-1.852-18.401-12.265-16.549-23.257 1.662-9.856 10.205-16.831 19.879-16.831 1.114 0 2.243 0.092 3.378 0.283l146.636 24.713c10.992 1.852 18.4 12.264 16.549 23.256l-22.765 135.108c-1.853 10.99-12.254 18.398-23.257 16.549-10.992-1.852-18.4-12.264-16.549-23.256l14.456-85.792c-75.734 52.438-166.029 80.884-259.031 80.884-61.436 0-121.045-12.037-177.171-35.777-54.201-22.925-102.875-55.741-144.669-97.534s-74.609-90.467-97.534-144.669c-23.74-56.126-35.777-115.736-35.777-177.171 0-71.050 15.922-139.111 47.324-202.294 3.527-7.097 10.668-11.204 18.089-11.204 3.018 0 6.082 0.678 8.967 2.114 9.982 4.96 14.052 17.074 9.091 27.056-28.602 57.549-43.106 119.566-43.106 184.327zM939.095 645.929c-4.959 9.982-17.072 14.054-27.056 9.093-9.982-4.96-14.053-17.073-9.093-27.056 28.599-57.555 43.101-119.574 43.101-184.335 0-56.004-10.964-110.322-32.588-161.444-20.89-49.39-50.801-93.75-88.901-131.85s-82.46-68.010-131.85-88.9c-51.124-21.623-105.442-32.588-161.447-32.588-85.196 0-167.89 26.199-237.122 74.46l99.868 16.827c10.991 1.852 18.401 12.264 16.549 23.257s-12.261 18.394-23.256 16.549l-146.635-24.707c-5.278-0.89-9.987-3.84-13.090-8.201-3.104-4.361-4.348-9.777-3.458-15.056l22.767-135.113c1.661-9.858 10.204-16.833 19.878-16.832 1.113 0 2.244 0.093 3.378 0.283 10.991 1.852 18.401 12.264 16.549 23.257l-14.456 85.797c75.735-52.438 166.029-80.884 259.032-80.884 61.435 0 121.045 12.036 177.171 35.776 54.201 22.925 102.876 55.742 144.669 97.534 41.794 41.794 74.61 90.466 97.535 144.668 23.74 56.125 35.776 115.734 35.776 177.169-0.002 71.047-15.923 139.11-47.32 202.296z" />
<glyph unicode="&#xe906;" glyph-name="file" d="M397.459 122.445h-207.402c-9.394 0-16.621 7.949-16.621 16.621v661.951c0 9.394 7.949 16.621 16.621 16.621h581.736c9.394 0 16.621-7.949 16.621-16.621v-278.944c0-13.73 11.562-25.293 25.293-25.293s25.293 11.562 25.293 25.293v278.944c0 36.855-30.351 67.207-67.207 67.207h-581.736c-36.855 0-67.207-30.351-67.207-67.207v-661.951c0-36.855 30.351-67.207 67.207-67.207h207.402c13.73 0 25.293 11.562 25.293 25.293s-11.562 25.293-25.293 25.293zM880.192 430.295c-33.242 33.242-87.441 33.242-120.683 0l-247.87-247.87c-3.613-3.613-5.781-7.227-6.504-12.285l-24.57-107.675c-2.168-8.672 0.723-17.344 6.504-23.125 5.059-5.059 11.562-7.949 18.066-7.949 1.445 0 3.613 0 5.059 0.723l109.843 22.402c5.059 0.723 9.394 3.613 13.008 7.227l247.147 247.87c15.898 15.898 25.293 37.578 25.293 60.703s-9.394 44.082-25.293 59.98zM844.782 345.022l-242.089-242.089-64.316-13.008 14.453 62.148 242.089 242.812c13.73 13.73 36.133 13.73 49.14 0 6.504-6.504 10.117-15.176 10.117-24.57s-2.891-18.789-9.394-25.293zM698.806 751.876h-443.709c-13.73 0-25.293-11.562-25.293-25.293s11.562-25.293 25.293-25.293h444.432c13.73 0 25.293 11.562 25.293 25.293s-11.562 25.293-26.016 25.293zM724.099 603.732c0 13.73-11.562 25.293-25.293 25.293h-443.709c-13.73 0-25.293-11.562-25.293-25.293s11.562-25.293 25.293-25.293h444.432c13.73 0 24.57 11.562 24.57 25.293zM230.526 474.377c0-15.166 12.295-27.461 27.461-27.461s27.461 12.295 27.461 27.461v0c0 15.166-12.295 27.461-27.461 27.461s-27.461-12.295-27.461-27.461v0zM326.639 474.377c0-0.002 0-0.003 0-0.005 0-15.166 12.295-27.461 27.461-27.461s27.461 12.295 27.461 27.461c0 0.002 0 0.004 0 0.006v0c0 0.002 0 0.003 0 0.005 0 15.166-12.295 27.461-27.461 27.461s-27.461-12.295-27.461-27.461c0-0.002 0-0.004 0-0.006v0zM422.752 474.377c0-0.002 0-0.003 0-0.005 0-15.166 12.295-27.461 27.461-27.461s27.461 12.295 27.461 27.461c0 0.002 0 0.004 0 0.006v0c0 0.002 0 0.003 0 0.005 0 15.166-12.295 27.461-27.461 27.461s-27.461-12.295-27.461-27.461c0-0.002 0-0.004 0-0.006v0z" />
<glyph unicode="&#xe907;" glyph-name="game" d="M812.222 363.377c39.232 0 71.148 31.918 71.148 71.152 0 39.23-31.917 71.147-71.148 71.147-39.234 0-71.152-31.917-71.152-71.147-0.001-39.234 31.918-71.152 71.152-71.152zM812.222 468.837c18.918 0 34.309-15.392 34.309-34.308 0-18.92-15.392-34.312-34.309-34.312-18.92 0-34.312 15.393-34.312 34.312s15.392 34.308 34.312 34.308zM664.838 492.432c39.232 0 71.147 31.918 71.147 71.152 0 39.23-31.916 71.147-71.147 71.147s-71.147-31.917-71.147-71.147c0-39.233 31.916-71.152 71.147-71.152zM664.838 597.893c18.918 0 34.308-15.392 34.308-34.308 0-18.92-15.391-34.312-34.308-34.312s-34.308 15.393-34.308 34.312c0 18.917 15.391 34.308 34.308 34.308zM981.345 465.354v95.168c0 38.182-6.479 71.918-19.255 100.273-11.485 25.486-28.086 46.812-49.344 63.383-44.128 34.399-96.464 39.535-123.733 39.535h-258.41v47.291c0 10.173-8.247 18.42-18.42 18.42s-18.42-8.247-18.42-18.42v-47.291h-272.814c-27.269 0-79.605-5.137-123.733-39.535-21.257-16.57-37.859-37.896-49.343-63.383-12.777-28.355-19.255-62.091-19.255-100.273v-95.158l-0.015-27.734v-151.796c0-65.412 53.218-118.629 118.632-118.629h47.955c3.241-0.157 17.126-0.597 33.735 2.153 26.479 4.38 46.795 14.35 60.382 29.636 14.513 16.327 22.956 28.535 24.714 31.14 14.757 19.725 36.773 31.719 65.445 35.655 5.853 0.803 11.966 1.336 18.674 1.626l70.987 0.013c0.424 0.008 42.156 1.16 61.146-22.577 6.354-7.943 17.945-9.234 25.89-2.878s9.231 17.946 2.878 25.89c-29.641 37.053-84.874 36.562-90.896 36.391l-71.163-0.016c-8.032-0.335-15.401-0.974-22.526-1.952-39.024-5.355-69.399-22.364-90.282-50.554l-0.568-0.811c-0.076-0.114-7.688-11.54-21.83-27.45-16.143-18.16-52.37-20.199-64.926-19.462l-0.587 0.038h-49.027c-45.101 0-81.793 36.69-81.793 81.79v151.785l0.015 27.734v95.168c0 61.172 18.306 106.459 54.407 134.602 35.439 27.626 78.544 31.751 101.084 31.751h568.063c22.54 0 65.645-4.125 101.084-31.751 36.102-28.143 54.408-73.429 54.408-134.602v-95.179l0.015-27.713v-151.796c0-45.099-36.692-81.79-81.793-81.79l-49.614-0.038c-11.687-0.75-48.713 1.223-64.925 19.462-14.143 15.91-21.755 27.337-21.817 27.43l-0.581 0.832c-20.884 28.19-51.259 45.199-90.278 50.553-5.614 0.773-19.29 1.197-36.586 1.673-4.142 0.114-7.534 0.206-9.326 0.28-10.161 0.424-18.747-7.472-19.171-17.636s7.472-18.747 17.636-19.171c1.974-0.082 5.449-0.178 9.849-0.299 8.532-0.234 28.514-0.785 32.586-1.344 28.667-3.935 50.682-15.929 65.44-35.653 1.758-2.604 10.2-14.813 24.715-31.142 13.586-15.284 33.902-25.255 60.381-29.635 11.48-1.899 21.658-2.276 27.92-2.276 2.798 0 4.815 0.075 5.815 0.123h47.956c65.414 0 118.632 53.217 118.632 118.629v151.806l-0.015 27.713zM268.36 374.407c0.013 0 0.026 0 0.040 0 10.153 0 18.397 8.221 18.418 18.381l0.22 105.304 105.066 0.238c10.173 0.023 18.4 8.289 18.378 18.461-0.023 10.159-8.264 18.378-18.418 18.378-0.014 0-0.029 0-0.043 0l-104.905-0.238 0.22 105.147c0.021 10.173-8.208 18.437-18.381 18.458-0.013 0-0.026 0-0.040 0-10.154 0-18.397-8.222-18.418-18.381l-0.22-105.307-105.066-0.238c-10.173-0.023-18.4-8.289-18.378-18.461 0.023-10.159 8.264-18.378 18.418-18.378 0.013 0 0.029 0 0.043 0l104.905 0.238-0.22-105.143c-0.021-10.174 8.208-18.439 18.381-18.459z" />
<glyph unicode="&#xe908;" glyph-name="good" d="M258.751 10.735c-5.327 0-10.598 2.366-14.13 6.89-6.086 7.797-4.698 19.050 3.099 25.135 34.776 27.142 108.915 27.681 117.256 27.668h417.065c47.039 0 67.85 21.741 88.935 93.021l65.529 262.21c9.555 60.109-7.268 94.879-23.101 113.484-16.754 19.685-40.648 30.975-65.555 30.975l-161.47-0.588c-0.021 0-0.044 0-0.064 0-6.575 0-12.621 3.603-15.752 9.388-3.14 5.804-2.833 12.865 0.799 18.376l66.139 100.349c24.541 48.712 26.975 93.592 7.234 133.409-14.539 29.323-36.318 45.2-36.534 45.352-0.12 0.085-0.238 0.171-0.357 0.258-15.603 11.578-29.504 15.711-41.315 12.284-19.033-5.52-32.132-29.897-35.574-38.823-0.177-0.469-0.351-0.872-0.567-1.324-31.17-65.405-69.639-120.517-114.338-163.809-36.058-34.922-76.209-62.258-119.334-81.248-70.653-31.111-125.927-29.54-132.969-29.194h-130.996c-0.872-0.029-12.991-0.543-24.295-7.151-14.415-8.427-21.298-23.045-21.040-44.686 0.001-0.072 0.001-0.142 0.001-0.214v-401.447c0.765-21.834 8.544-37.331 23.123-46.063 10.787-6.459 21.51-7.119 21.613-7.123 0.041-0.001 0.082-0.003 0.122-0.004l28.054-1.203-0.484 74.682c0 0.039 0 0.077 0 0.116v371.992c0 9.89 8.018 17.908 17.908 17.908s17.908-8.018 17.908-17.908v-371.946l0.606-93.423c0.032-4.903-1.947-9.604-5.477-13.007-3.529-3.402-8.296-5.217-13.198-5.001l-46.795 2.007c-2.309 0.091-20.214 1.14-38.657 12.186-17.714 10.609-39.123 32.39-40.527 75.912-0.006 0.192-0.009 0.386-0.009 0.577v401.645c-0.295 26.488 7.373 47.865 22.789 63.534 23.223 23.605 54.616 24.42 58.119 24.436h131.73c0.39 0 0.78-0.012 1.169-0.038 0.46-0.029 52.299-2.711 118.74 27.020 38.936 17.424 75.278 42.447 108.020 74.374 41.056 40.036 76.593 91.152 105.627 151.932 2.676 6.654 20.865 48.557 58.533 59.627 23.155 6.804 47.634 0.827 72.748-17.77 3.026-2.185 29.688-22.117 47.75-58.547 17.3-34.892 29.982-92.090-7.846-166.44-0.304-0.597-0.641-1.176-1.009-1.735l-48.324-73.319 128.139 0.467c35.49 0 69.325-15.884 92.895-43.577 20.791-24.429 43.058-69.096 31.063-143.156-0.081-0.496-0.183-0.991-0.305-1.479l-65.809-263.325c-0.061-0.244-0.127-0.486-0.197-0.728-21.693-73.501-49.902-119.056-123.391-119.056h-417.123c-0.139 0-0.279 0.001-0.42 0.001-26.892 0-75.955-5.424-94.743-20.089-3.272-2.554-7.154-3.792-11.006-3.792z" />
<glyph unicode="&#xe909;" glyph-name="help" d="M495.018-7.633c-249.315 0-452.381 203.066-452.381 452.381s203.066 452.381 452.381 452.381c66.484 0 130.078-13.73 189.335-41.191 7.227-2.891 13.73-6.504 20.234-10.117 13.73-7.227 18.789-23.848 11.562-37.578s-23.848-18.789-37.578-11.562c-5.781 2.891-11.562 5.781-18.066 8.672-52.031 23.848-108.398 36.133-166.21 36.133-218.964 0-396.737-177.773-396.737-396.737s177.773-396.737 396.737-396.737 396.737 177.773 396.737 396.737c0 7.227 0 13.73-0.723 20.957-0.723 15.176 10.84 28.183 26.738 29.629 15.176 0.723 28.183-10.84 29.629-26.738 0.723-7.949 0.723-15.898 0.723-23.848 0.723-249.315-202.343-452.381-452.381-452.381zM870.797 575.548c0-16.364 13.265-29.629 29.629-29.629s29.629 13.265 29.629 29.629v0c0 16.364-13.265 29.629-29.629 29.629s-29.629-13.265-29.629-29.629v0zM825.993 673.107c0-16.364 13.265-29.629 29.629-29.629s29.629 13.265 29.629 29.629v0c0 16.364-13.265 29.629-29.629 29.629s-29.629-13.265-29.629-29.629v0zM753.728 757.657c0-16.364 13.265-29.629 29.629-29.629s29.629 13.265 29.629 29.629v0c0 16.364-13.265 29.629-29.629 29.629s-29.629-13.265-29.629-29.629v0zM494.295 248.186c-14.453 0-26.738 12.285-26.738 26.738v100.449c0 71.543 50.586 96.113 91.054 116.347 45.527 22.402 80.215 39.746 72.265 113.457-7.227 69.375-85.273 80.215-130.8 80.215h-5.059c-56.367-1.445-106.23-34.687-127.187-83.828-4.336-10.117-13.73-16.621-24.57-16.621-3.613 0-7.227 0.723-10.117 2.168-6.504 2.891-11.562 7.949-14.453 14.453s-2.891 13.73 0 20.234c28.906 69.375 98.281 115.625 175.605 117.070h5.781c105.507 0 176.327-49.14 184.999-127.91 12.285-110.566-53.476-143.085-101.894-166.933-41.191-20.234-61.426-31.797-61.426-67.929v-100.449c-0.723-15.176-13.008-27.461-27.461-27.461zM497.908 152.073c-15.898 0-29.629 13.008-29.629 29.629s13.008 29.629 29.629 29.629c15.898 0 29.629-13.008 29.629-29.629s-13.73-29.629-29.629-29.629z" />
<glyph unicode="&#xe90a;" glyph-name="home" d="M742.596-44.898c-3.519 0-7.078 0.992-10.241 3.067-34.373 22.557-90.629 24.765-94.152 24.88l-21.048-0.021c-0.010 0-0.019 0-0.029 0-2.294 0-20.886 0.437-35.009 14.537-6.686 6.675-14.656 18.863-14.656 39.009v111.43c-0.195 13.483-3.995 23.407-11.614 30.335-13.489 12.266-37.208 13.253-45.214 12.595l-0.782-0.051c-17.934-0.796-30.729-5.561-38.027-14.158-8.909-10.496-7.759-24.718-7.629-26.049l0.234-1.414-0.063-1.125v-111.561c0-20.147-7.971-32.334-14.657-39.009-14.125-14.101-32.719-14.537-34.935-14.537-0.009 0-0.018 0-0.027 0h-221.985c-26.516 0-48.087 21.571-48.087 48.087l0.021 401.88c0.043 4.592-0.851 7.842-2.655 9.66-2.68 2.701-7.843 3.364-9.679 3.398l-0.511-0.035-0.031 0.032c-27.867 0-50.539 22.669-50.539 50.535 0 12.22 4.422 24.017 12.452 33.214l0.854 0.915 386.899 387.484c23.887 24.494 52.385 15.011 65.73 2.64l0.513-0.493 390.361-390.548c8.027-9.195 12.446-20.991 12.446-33.214 0-26.938-18.76-46.919-46.899-50.256l-0.262-0.077-1.851-0.162c-6.571-0.572-14.402-3.338-14.402-13.27v-395.084l0.020-0.116v-1.587c0-12.86-3.522-24.94-9.92-34.014-8.635-12.248-22.19-18.993-38.166-18.993l-36.642 0.021c-10.326 0-18.697 8.371-18.697 18.697s8.371 18.697 18.697 18.697l36.707-0.021c5.332 0.017 6.767 2.052 7.539 3.147 1.787 2.534 2.908 6.704 3.069 11.317v397.938c0 26.616 19.038 47.052 46.547 50.316l0.228 0.067 1.826 0.164c9.829 0.881 14.813 5.328 14.813 13.217 0 3.783-1.512 6.524-2.905 8.245l-388.444 388.569c-6.846 5.585-11.555 0.735-13.581-1.352l-0.183-0.186-386.443-387.028c-1.397-1.723-2.912-4.465-2.912-8.248 0-7.201 5.824-13.069 13.010-13.141 3.9 0.060 22.52-0.437 36.364-13.92 6.491-6.321 14.189-17.831 14.041-36.777v-402.306c0.348-5.584 5.002-10.021 10.673-10.021h221.77c1.173 0.067 4.492 0.589 7.147 2.314 1.448 0.94 5.294 3.437 5.294 13.84v110.499c-0.697 6.947-1.751 32.041 15.857 53.271 14.218 17.14 36.078 26.519 64.976 27.877 6.391 0.515 45.712 2.561 72.969-22.009 15.661-14.118 23.761-33.576 24.076-57.832l0.001-0.244v-111.561c0-5.886 1.239-10.107 3.684-12.548 3.178-3.174 8.432-3.606 8.481-3.606l3.706 0.021 18.172-0.004c2.821-0.063 69.613-1.894 113.976-31.006 8.633-5.665 11.038-17.256 5.373-25.89-3.591-5.471-9.562-8.44-15.649-8.44z" />
<glyph unicode="&#xe90b;" glyph-name="king" d="M1005.777 634.805c-6.851 3.275-15.018 1.873-20.385-3.495l-80.316-80.316c-40.446-40.444-106.258-40.445-146.704 0l-80.316 80.317c-0.34 0.34-0.699 0.65-1.058 0.957l-64.984 64.983c-26.357 26.36-61.4 40.877-98.675 40.877s-72.319-14.517-98.675-40.876l-65.495-65.495c-0.163-0.151-0.336-0.288-0.494-0.446l-80.316-80.317c-40.445-40.447-106.257-40.446-146.703 0l-80.317 80.317c-5.374 5.375-13.558 6.771-20.411 3.482s-10.883-10.545-10.053-18.1l47.872-435.766c0.998-9.079 8.667-15.952 17.801-15.952h573.643c23.893-0.184 92.462-5.853 123.334-29.598 3.254-2.503 7.095-3.715 10.904-3.715 5.369 0 10.681 2.406 14.208 6.991 6.030 7.839 4.563 19.082-3.277 25.112-46.794 35.992-140.999 36.999-144.987 37.025-0.038 0-0.076 0-0.114 0h-557.664l-40.556 369.168 44.29-44.29c54.411-54.41 142.944-54.41 197.355 0l65.496 65.497c0.163 0.151 0.334 0.287 0.492 0.445l80.317 80.317c19.592 19.593 45.642 30.385 73.35 30.385s53.756-10.791 73.35-30.386l80.317-80.316c0.339-0.339 0.696-0.647 1.054-0.953l64.988-64.988c54.409-54.406 142.942-54.408 197.354 0l44.464 44.465-39.436-369.342h-92.069c-9.89 0-17.908-8.018-17.908-17.908s8.018-17.908 17.908-17.908h108.166c9.153 0 16.834 6.904 17.807 16.007l46.53 435.766c0.806 7.545-3.235 14.781-10.084 18.055zM442.359 563.802c0-39.152 31.852-71.005 71.005-71.005s71.005 31.852 71.005 71.005c0 39.155-31.852 71.009-71.005 71.009s-71.005-31.854-71.005-71.009zM548.554 563.802c0-19.403-15.786-35.189-35.189-35.189s-35.189 15.786-35.189 35.189c0 19.405 15.786 35.194 35.189 35.194s35.189-15.789 35.189-35.194z" />
<glyph unicode="&#xe90c;" glyph-name="left" d="M622.927 170.862c-6.504 0-13.008 2.168-18.066 7.227l-231.249 231.249c-10.117 10.117-15.898 23.848-15.898 39.023 0 14.453 5.781 28.183 15.898 39.023l231.972 231.972c10.117 10.117 26.016 10.117 35.41 0 10.117-10.117 10.117-26.016 0-35.41l-231.249-231.972c-0.723-0.723-1.445-2.168-1.445-2.891s0-2.168 1.445-2.891l231.249-231.249c10.117-10.117 10.117-26.016 0-35.41-5.059-5.781-11.562-8.672-18.066-8.672z" />
<glyph unicode="&#xe90d;" glyph-name="logistics" d="M1008.274 366.272c-3.372 32.724-20.828 54.611-25.3 59.737l-102.732 141.299-38.241 83.381c-0.105 0.229-0.215 0.456-0.33 0.683-24.105 47.319-51.162 50.235-59.123 49.969h-43.089c-10.173 0-18.42-8.247-18.42-18.42s8.247-18.42 18.42-18.42h43.514c0.028 0 0.055 0 0.083 0 1.622-0.398 12.521-3.956 25.623-29.524l38.844-84.696c0.509-1.109 1.127-2.165 1.845-3.153l104.348-143.521c0.476-0.654 0.994-1.276 1.55-1.861 0.137-0.143 13.548-14.832 16.266-38.361v-174.71h-123.425c-5.030 0-9.84-2.057-13.316-5.693s-5.312-8.535-5.085-13.559c0.051-1.131 0.171-2.085 0.261-2.739-0.384-23.546-19.655-42.584-43.288-42.584s-42.906 19.036-43.292 42.578c0.089 0.644 0.208 1.581 0.262 2.688 0.243 5.034-1.587 9.948-5.063 13.596s-8.295 5.713-13.335 5.713h-32.88v548.998c0 0.761-0.047 1.523-0.142 2.279l-0.491 3.944c-1.149 9.22-8.986 16.141-18.277 16.141h-632.731c-16.038 0-29.086-13.048-29.086-29.086v-550.028c0-16.038 13.048-29.086 29.086-29.086h141.023c7.264-36.764 39.755-64.575 78.617-64.575s71.351 27.811 78.615 64.575h195.798c0.326 0 0.599 0.006 0.925 0.023 0.395 0.024 39.746 1.62 63.481-19.268 7.636-6.719 19.276-5.98 25.996 1.659 6.72 7.637 5.978 19.275-1.659 25.996-33.589 29.561-82.888 28.669-89.137 28.428h-212.592c-5.029 0-9.837-2.056-13.312-5.69s-5.313-8.531-5.089-13.554c0.051-1.135 0.171-2.094 0.261-2.749-0.384-23.546-19.655-42.584-43.287-42.584s-42.902 19.035-43.288 42.577c0.089 0.642 0.208 1.576 0.261 2.679 0.247 5.036-1.582 9.952-5.059 13.602s-8.297 5.717-13.339 5.717h-150.463v534.525h607.051v-553.213c0-5.048 2.071-9.874 5.731-13.351s8.609-5.309 13.624-5.045l4.839 0.246h28.333c7.265-36.764 39.757-64.575 78.621-64.575 38.862 0 71.352 27.811 78.617 64.575h113.984c16.040 0 29.091 13.048 29.091 29.086v183.463c-0.002 0.63-0.034 1.26-0.098 1.888zM803.815 537.723c2.549 0 5.139 0.532 7.611 1.656 9.261 4.21 13.355 15.13 9.146 24.391l-26.206 57.65c-4.211 9.261-15.131 13.357-24.392 9.146s-13.355-15.13-9.146-24.391l26.206-57.65c3.087-6.79 9.779-10.802 16.78-10.802z" />
<glyph unicode="&#xe90e;" glyph-name="look" d="M865.161 3.78h-695.71c-36.838 0-66.807 29.97-66.807 66.807v243.304c0 10.173 8.247 18.42 18.42 18.42s18.42-8.247 18.42-18.42v-243.304c0-16.523 13.443-29.968 29.968-29.968h695.71c16.524 0 29.968 13.444 29.968 29.968v243.304c0 10.173 8.247 18.42 18.42 18.42s18.42-8.247 18.42-18.42v-243.304c0-36.837-29.97-66.807-66.807-66.807zM913.548 559.609c-10.173 0-18.42 8.247-18.42 18.42v260.421c0 16.523-13.443 29.968-29.968 29.968h-695.71c-16.524 0-29.968-13.443-29.968-29.968v-260.421c0-10.173-8.247-18.42-18.42-18.42s-18.42 8.247-18.42 18.42v260.421c0 36.837 29.97 66.807 66.807 66.807h695.71c36.837 0 66.807-29.97 66.807-66.807v-260.421c0-10.173-8.246-18.42-18.42-18.42zM961.129 433.386h-887.083c-10.173 0-18.42 8.247-18.42 18.42s8.247 18.42 18.42 18.42h887.082c10.173 0 18.42-8.247 18.42-18.42s-8.246-18.42-18.418-18.42z" />
<glyph unicode="&#xe90f;" glyph-name="masonry" d="M506.094 15.29h-2.384c-5.804 0-11.249 2.813-14.607 7.548l-460.083 648.678c-2.147 3.027-3.301 6.648-3.301 10.36v1.47c0 2.286 0.438 4.552 1.29 6.674l80.253 199.828c2.726 6.787 9.304 11.234 16.617 11.234h785.077c7.314 0 13.892-4.447 16.617-11.234l80.253-199.828c2.727-6.79 1.049-14.556-4.239-19.614-5.285-5.058-13.117-6.392-19.781-3.368l-7.173 3.256c-0.935 0.425-1.832 0.928-2.68 1.506l-243.043 165.538-212.972-168.939c-3.166-2.511-7.088-3.878-11.129-3.878h-0.795c-4.201 0-8.268 1.477-11.49 4.172l-201.045 168.168-221.691-160.919 435.47-613.977 363.165 485.177c0.027 0.036 0.054 0.072 0.081 0.107l19.586 25.758c4.072 6.015 35.658 50.617 83.040 60.336 9.684 1.989 19.154-4.255 21.14-13.944s-4.255-19.153-13.944-21.142c-34.745-7.127-60.421-45.084-60.67-45.464-0.232-0.354-0.475-0.699-0.731-1.035l-19.87-26.131-376.629-503.163c-3.381-4.518-8.694-7.177-14.337-7.177zM313.348 865.266l191.356-160.062 201.783 160.062h-393.139zM135.987 865.266l-54.995-136.934 188.649 136.934h-133.654zM751.534 865.266l200.035-136.246-54.716 136.246h-145.319z" />
<glyph unicode="&#xe910;" glyph-name="message" d="M861.659 83.115h-697.621c-56.431 0-102.341 45.912-102.341 102.346v518.622c0 56.433 45.911 102.346 102.341 102.346h697.621c31.793 0 53.361-9.448 64.101-28.084 11.435-19.835 7.302-42.094-11.34-61.067l-11.351-11.558c-0.045-0.045-0.602-0.613-1.65-1.679-0.103-0.106-0.206-0.21-0.306-0.312l-30.905-31.463c-0.025-0.025-0.050-0.050-0.074-0.075-27.242-27.734-70.075-71.339-123.53-125.759l-127.363-129.661c-26.452-26.931-52.903-53.859-79.356-80.786l-6.843-6.97c-3.352-3.416-7.937-5.34-12.722-5.34-0.008 0-0.016 0-0.024 0-4.794 0.007-9.382 1.943-12.73 5.373l-354.882 363.519c-6.877 7.044-6.741 18.329 0.303 25.206s18.329 6.742 25.206-0.303l342.165-350.494c24.487 24.926 48.969 49.848 73.449 74.773l295.181 300.509c10.351 10.535 7.335 15.766 5.885 18.279-3.749 6.507-15.856 10.238-33.215 10.238h-697.621c-36.775 0-66.692-29.919-66.692-66.696v-518.622c0-36.776 29.917-66.696 66.692-66.696h697.621c36.776 0 66.696 29.919 66.696 66.696v449.665c-0.015 3.157 0.243 47.771 25.434 88.074 5.217 8.347 16.215 10.886 24.562 5.667s10.885-16.214 5.667-24.562c-19.908-31.851-20.017-68.646-20.016-69.014 0.001-0.055 0.001-0.058 0.001-0.114v-449.715c0.001-56.434-45.911-102.346-102.345-102.346z" />
<glyph unicode="&#xe911;" glyph-name="modify" d="M834.603 3.519c-28.69-0.001-56.695 11.376-77.195 31.876l-209.589 209.783c-0.45 0.449-0.437 0.396-0.765 0.802-2.406 2.444-6.222 4.739-10.997 2.263-0.247-0.128-0.495-0.25-0.747-0.365-46.595-21.562-96.394-32.495-148.013-32.495-47.665 0-93.913 9.34-137.462 27.759-42.054 17.787-79.818 43.247-112.243 75.671-32.426 32.427-57.885 70.19-75.672 112.242-18.42 43.549-27.759 89.797-27.759 137.462 0 34.234 5.108 68.423 15.182 101.617 0.191 0.63 0.415 1.25 0.672 1.857 6.262 14.797 16.157 19.972 23.356 21.707 15.544 3.752 28.114-5.927 30.476-7.905 0.422-0.353 0.828-0.725 1.216-1.113l156.502-156.506c42.113-42.112 110.635-42.111 152.747 0l14.932 14.932c42.113 42.113 42.113 110.637 0 152.75l-154.021 154.022c-2.995 2.952-16.231 17.145-12.616 33.943 1.248 5.803 5.613 16.365 20.809 21.903 0.298 0.107 0.597 0.209 0.899 0.302 33.685 10.372 68.334 15.631 102.981 15.631 47.665 0 93.914-9.339 137.463-27.758 42.054-17.787 79.817-43.248 112.243-75.673 32.426-32.427 57.884-70.191 75.671-112.244 18.42-43.549 27.759-89.798 27.759-137.464 0-47.241-9.277-93.215-27.574-136.647-0.413-0.98-0.91-1.924-1.484-2.82-3.445-5.385-3.814-9.954-1.228-15.278 2.122-4.374 5.5-7.501 5.532-7.526 0.431-0.36 0.845-0.739 1.242-1.136l205.101-205.101c24.788-24.781 36.161-60.248 30.424-94.873-1.687-10.187-11.314-17.073-21.502-15.39-10.187 1.687-17.077 11.315-15.39 21.502 3.77 22.749-3.696 46.047-19.973 62.318l-204.588 204.588c-12.778 11.129-30.56 38.879-12.039 69.567 15.982 38.42 24.084 79.051 24.084 120.796 0 84.34-32.844 163.631-92.479 223.268s-138.926 92.479-223.264 92.479c-27.645 0-55.313-3.76-82.393-11.186l150.78-150.78c27.463-27.463 42.588-63.978 42.588-102.817s-15.124-75.352-42.588-102.817l-14.932-14.932c-56.693-56.692-148.936-56.691-205.629 0l-151.708 151.713c-7.872-27.834-11.861-56.374-11.861-84.929 0-84.338 32.843-163.627 92.48-223.264 59.636-59.635 138.926-92.479 223.264-92.479 46.034 0 90.435 9.717 131.979 28.885 24.868 12.609 46.728-0.96 55.354-10.41l209.227-209.419c15.8-15.8 37.441-23.18 59.572-20.367 9.736 3.146 57.339 17.845 106.857 21.383 10.304 0.729 19.246-7.018 19.981-17.317s-7.018-19.246-17.317-19.981c-49.661-3.546-98.847-19.931-99.338-20.097-1.050-0.353-2.131-0.613-3.226-0.774-5.255-0.777-10.53-1.158-15.779-1.158z" />
<glyph unicode="&#xe912;" glyph-name="more" d="M245.578 385.486c-46.517 0-84.362 37.845-84.362 84.362 0 46.521 37.845 84.368 84.362 84.368s84.363-37.847 84.363-84.368c0-46.517-37.845-84.362-84.363-84.362zM245.578 513.354c-23.986 0-43.501-19.516-43.501-43.505 0-23.986 19.514-43.501 43.501-43.501s43.502 19.514 43.502 43.501c0 23.988-19.515 43.505-43.502 43.505zM523.412 385.486c-46.517 0-84.362 37.845-84.362 84.362 0 46.521 37.845 84.368 84.362 84.368 46.521 0 84.368-37.847 84.368-84.368 0-46.517-37.847-84.362-84.368-84.362zM523.412 513.354c-23.985 0-43.501-19.516-43.501-43.505 0-23.986 19.514-43.501 43.501-43.501 23.988 0 43.506 19.514 43.506 43.501 0 23.988-19.516 43.505-43.506 43.505zM801.247 385.486c-46.517 0-84.362 37.845-84.362 84.362 0 46.521 37.845 84.368 84.362 84.368 46.521 0 84.368-37.847 84.368-84.368 0-46.517-37.847-84.362-84.368-84.362zM801.247 513.354c-23.985 0-43.501-19.516-43.501-43.505 0-23.986 19.514-43.501 43.501-43.501s43.506 19.514 43.506 43.501c0 23.988-19.518 43.505-43.506 43.505z" />
<glyph unicode="&#xe913;" glyph-name="music" d="M917.298 49.563h-131.889c-35.731 0-64.799 29.069-64.799 64.8v208.628c0 35.729 29.068 64.795 64.799 64.795h20.49c0.704 0 1.408-0.040 2.108-0.119 10.079-1.090 39.864-0.746 55.762 13.729 7.59 6.911 19.348 6.363 26.261-1.23 6.912-7.591 6.362-19.349-1.23-26.261-29.435-26.802-75.577-24.036-83.805-23.298h-19.587c-15.23 0-27.62-12.388-27.62-27.616v-208.628c0-15.231 12.39-27.621 27.62-27.621h120.811v423.551c0 89.938-35.025 174.493-98.619 238.089s-148.15 98.619-238.089 98.619h-121.94c-89.936 0-174.49-35.024-238.084-98.619-63.595-63.595-98.619-148.15-98.619-238.089v-122.507h114.261c35.729 0 64.796-29.066 64.796-64.795v-208.628c0-35.731-29.067-64.8-64.796-64.8h-131.892c-0.426 0-0.851 0.014-1.275 0.043l-0.96 0.065c-9.749 0.67-17.314 8.774-17.314 18.546v442.074c0 50.466 9.888 99.433 29.389 145.54 18.832 44.524 45.788 84.508 80.119 118.839s74.314 61.287 118.838 80.12c46.106 19.502 95.072 29.389 145.538 29.389h121.941c50.466 0 99.433-9.888 145.54-29.389 44.525-18.832 84.508-45.788 118.839-80.119s61.288-74.315 80.12-118.839c19.502-46.107 29.389-95.073 29.389-145.54v-442.074c0-10.203-8.223-18.499-18.427-18.589l-7.511-0.065c-0.054-0.001-0.109-0.001-0.164-0.001zM110.867 86.742h114.261c15.228 0 27.616 12.39 27.616 27.621v208.628c0 15.228-12.388 27.616-27.616 27.616h-114.261v-263.865z" />
<glyph unicode="&#xe914;" glyph-name="password" d="M508.765 411.087c-45.569 0-82.642-37.073-82.642-82.643 0-18.12 5.76-35.32 16.66-49.741 0.233-0.309 0.476-0.61 0.728-0.904 20.418-23.794 21.901-40.78 21.996-42.336v-47.198c0-23.853 19.406-43.258 43.259-43.258s43.259 19.406 43.259 43.258v48.088c0 0.54-0.023 1.082-0.070 1.619-0.004 0.042 0.108 0.010 0.113 0.051 0.119 1.084 0.482 3.401 1.586 6.76 2.22 6.751 7.443 17.813 19.729 32.178 0.178 0.208 0.351 0.42 0.52 0.635 11.454 14.647 17.509 32.229 17.509 50.846-0.001 45.57-37.075 82.644-82.647 82.644zM544.672 300.921c-28.9-33.943-30.313-58.253-30.039-65.055v-47.602c0-3.235-2.632-5.866-5.867-5.866s-5.866 2.631-5.866 5.866v47.423c0.002 3.492-0.961 31.193-30.593 65.974-5.753 7.791-8.791 17.040-8.791 26.783 0 24.951 20.299 45.251 45.25 45.251 24.953 0 45.255-20.299 45.255-45.251-0.002-10.065-3.233-19.573-9.349-27.523zM822.681 569.588h-45.82v120.048c0 0.793-0.050 1.586-0.15 2.374-8.165 63.781-39.283 122.508-87.623 165.366-48.764 43.234-111.545 67.043-176.778 67.043-71.204 0-138.146-27.729-188.494-78.076-50.35-50.349-78.077-117.291-78.077-188.496v-88.229l-50.884-0.030c-35.176 0-63.793-28.618-63.793-63.793v-452.058c0-35.175 28.617-63.792 63.793-63.792h389.76c0.568 0 1.13 0.025 1.684 0.075h234.697c0.556-0.050 1.117-0.075 1.684-0.075 35.175 0 63.792 28.617 63.792 63.792v452.058c0 35.175-28.617 63.793-63.792 63.793zM849.080 53.738c0-13.886-10.778-25.303-24.409-26.325-0.051 0-0.103 0-0.155 0h-245.603c-0.568 0-1.13-0.025-1.684-0.075h-382.376c-14.558 0-26.399 11.843-26.399 26.399v452.058c0 14.558 11.843 26.4 26.399 26.4l69.591 0.041c0.953 0.001 1.882 0.095 2.797 0.233 1.004-0.167 2.028-0.275 3.080-0.275h352.928c0.337-0.007 0.858-0.014 1.547-0.014 9.41 0 50.318 1.432 85.969 24.945 8.62 5.685 10.998 17.282 5.313 25.902-5.687 8.62-17.284 10.997-25.902 5.313-29.552-19.492-65.778-18.772-66.081-18.762-0.205 0.007-0.41 0.010-0.617 0.010h-340.348v88.26c0 61.216 23.839 118.768 67.125 162.055 43.286 43.286 100.838 67.124 162.054 67.124 56.083 0 110.054-20.466 151.971-57.63 41.277-36.594 67.947-86.619 75.188-140.976v-136.275c0-1.673 0.225-3.339 0.667-4.952l0.345-1.255c2.23-8.118 9.611-13.744 18.029-13.744h64.172c14.557 0 26.399-11.843 26.399-26.4v-452.059z" />
<glyph unicode="&#xe915;" glyph-name="phone" d="M766.439 16.442c-4.43 0-7.182 0.145-7.476 0.161l-0.291 0.018c-42.736 3.024-90.968 17.787-139.484 42.693l-0.587 0.315-54.079 30.249c-102.55 56.177-259.853 218.356-266.501 225.234l-11.432 11.828 0.092 0.115c-27.666 29.688-84.595 94.661-133.903 175.608-55.478 91.075-81.613 169.619-77.678 233.449 2.923 47.425 22.464 85.973 58.080 114.573 38.269 30.729 73.25 43.541 106.933 39.163 36.108-4.691 69.020-28.681 103.574-75.497 2.308-3.127 4.592-6.207 6.843-9.245 25.68-34.643 47.858-64.562 55.936-95.558 9.428-36.174-1.876-69.727-34.558-102.576l-1.134-1.14-0.239-0.143c-1.543-1.577-8.922-10.054-9.1-28.119-0.18-18.292 6.823-40.116 20.814-64.866 19.221-34 51.161-72.403 94.934-114.142 73.369-69.476 120.597-88.595 147.29-92.391 23.401-3.33 33.678 4.654 35.458 6.243l0.307 0.429-0.251-0.379c0.052 0.048 0.096 0.088 0.13 0.121 27.875 32.115 63.649 42.731 106.33 31.549 30.785-8.065 64.736-26.94 110.083-61.2 34.674-26.195 55.873-52.228 64.806-79.589 9.914-30.357 5.176-61.742-14.483-95.946-5.145-8.954-16.573-12.040-25.526-6.893-8.952 5.145-12.039 16.573-6.893 25.526 14.275 24.838 17.885 45.717 11.358 65.705-6.483 19.854-23.428 39.926-51.801 61.361-53.48 40.404-80.984 50.662-97.020 54.863-29.010 7.6-50.219 1.41-68.768-20.065-2.237-2.579-16.856-18.028-47.286-19.762-50.307-2.858-114.065 31.899-189.49 103.322-86.844 82.807-129.657 153.371-127.296 209.776 1.333 31.846 17.013 48.312 21.691 52.539 46.8 47.34 27.249 78.139-25.33 149.069-2.267 3.058-4.565 6.159-6.888 9.307-28.098 38.068-52.98 57.331-78.306 60.622-23.049 2.994-48.796-7.224-78.702-31.237-27.442-22.038-41.891-50.73-44.171-87.719-3.407-55.262 21.592-128.466 72.29-211.696 55.645-91.352 121.351-161.616 140.164-180.975l2.492-2.564c20.532-20.968 164.289-166.18 255.179-215.937l0.149-0.083 53.863-30.126c43.89-22.492 86.947-35.799 124.562-38.495 1.386-0.062 16.68-0.665 33.288 2.122 5.99 1.005 12.459 2.229 19.306 3.522 25.758 4.868 57.814 10.928 100.93 12.645 10.297 0.403 19.015-7.62 19.425-17.937s-7.619-19.015-17.937-19.425c-40.364-1.609-70.922-7.385-95.474-12.026-7.041-1.33-13.691-2.587-20.059-3.656-13.709-2.3-26.467-2.737-34.163-2.737z" />
<glyph unicode="&#xe916;" glyph-name="picture" d="M853.161 67.451l-699.999 0.413c-0.606 0.001-1.211 0.032-1.813 0.092-24.849 2.485-47.825 14.060-64.696 32.594-16.991 18.665-26.349 42.855-26.349 68.112v526.711c0 55.808 45.403 101.211 101.211 101.211h691.645c55.808 0 101.21-45.403 101.21-101.211v-225.513c0-0.275-0.006-0.552-0.018-0.826-0.021-0.494-1.972-51.723 15.482-85.462 4.716-9.119 1.148-20.335-7.971-25.053-9.117-4.714-20.335-1.149-25.053 7.971-21.3 41.177-19.845 97.643-19.619 103.739v225.145c0 35.307-28.724 64.031-64.031 64.031h-691.644c-35.307 0-64.031-28.724-64.031-64.031v-526.711c0-32.755 24.321-59.958 56.718-63.62l208.431-0.412h490.529c35.307 0 64.031 28.725 64.031 64.032l-0.383 93.677c-0.104 1.75-1.587 19.548-19.549 42.5-0.050 0.063-0.098 0.126-0.147 0.19l-21.713 28.489-117.227 155.119c-0.415 0.551-38.995 50.852-86.272 45.534-38.335-4.314-75.955-45.164-108.79-118.131-17.615-39.141-34.65-68.269-52.082-89.046-17.607-20.986-35.68-33.519-55.251-38.317-43.423-10.638-81.050 18.995-120.886 50.372l-5.057 3.981c-46.555 36.578-68.751 28.224-158.33-59.602-7.331-7.188-19.101-7.071-26.289 0.26s-7.071 19.101 0.26 26.288c46.659 45.746 77.544 72.726 107.086 84.283 33.358 13.048 64.275 6.267 100.242-21.994l5.093-4.008c33.923-26.72 63.22-49.795 89.029-43.467 25.618 6.279 53.301 42.114 82.28 106.509 39.139 86.976 85.838 134.028 138.797 139.849 68.454 7.515 117.823-57.404 119.892-60.171l117.123-154.981 21.6-28.344c26.276-33.631 27.334-61.639 27.367-64.725 0.001-0.043 0.001-0.085 0.001-0.128l0.384-94.059c0.001-55.885-45.401-101.288-101.209-101.288zM312.328 513.032c-42.325 0-76.759 34.434-76.759 76.759s34.434 76.759 76.759 76.759 76.759-34.434 76.759-76.759-34.433-76.759-76.759-76.759zM312.328 629.372c-21.824 0-39.579-17.755-39.579-39.579s17.755-39.579 39.579-39.579 39.579 17.755 39.579 39.579-17.754 39.579-39.579 39.579z" />
<glyph unicode="&#xe917;" glyph-name="right" d="M385.174 171.585c-6.504 0-13.008 2.168-18.066 7.227-10.117 10.117-10.117 26.016 0 35.41l231.249 231.249c1.445 1.445 1.445 4.336 0 5.781l-231.249 232.694c-10.117 10.117-10.117 26.016 0 36.133s26.016 10.117 36.133 0l231.972-231.972c21.68-21.68 21.68-56.367 0-77.324l-231.249-231.249c-5.781-5.781-12.285-7.949-18.789-7.949z" />
<glyph unicode="&#xe918;" glyph-name="search" d="M912.073 13.262c-4.785 0-9.57 1.825-13.22 5.476l-248.191 248.187c-0.286 0.286-0.562 0.579-0.828 0.883l-6.98 7.948c-6.672 7.595-6.097 19.118 1.298 26.012 32.131 29.958 57.425 65.414 75.181 105.379 18.374 41.357 27.692 85.473 27.692 131.122 0 86.356-33.629 167.543-94.692 228.605-61.063 61.063-142.25 94.692-228.605 94.692s-167.542-33.629-228.605-94.692c-61.063-61.063-94.692-142.25-94.692-228.605s33.629-167.543 94.692-228.605c61.063-61.063 142.25-94.692 228.605-94.692 26.151 0 52.165 3.13 77.326 9.302 5.091 1.354 73.404 19.189 120.842 14.809 10.282-0.949 17.847-10.053 16.9-20.335s-10.048-17.854-20.335-16.9c-41.66 3.846-107.272-13.571-107.93-13.747-0.126-0.034-0.252-0.065-0.378-0.097-28.133-6.918-57.21-10.425-86.425-10.425-48.685 0-95.923 9.538-140.403 28.353-42.953 18.167-81.524 44.172-114.644 77.29-33.119 33.119-59.124 71.692-77.291 114.644-18.813 44.479-28.353 91.717-28.353 140.402s9.539 95.923 28.353 140.403c18.168 42.953 44.172 81.525 77.291 114.644s71.691 59.124 114.644 77.291c44.48 18.813 91.718 28.353 140.403 28.353s95.923-9.539 140.402-28.353c42.953-18.168 81.525-44.173 114.644-77.291 33.118-33.119 59.124-71.691 77.291-114.644 18.813-44.48 28.352-91.718 28.352-140.403 0-50.913-10.4-100.137-30.911-146.305-17.286-38.906-40.967-73.974-70.526-104.475l242.314-242.311c7.302-7.301 7.302-19.139 0.001-26.44-3.652-3.649-8.437-5.475-13.222-5.475zM165.576 538.112c-0.697 0-1.401 0.039-2.11 0.119-10.261 1.152-17.646 10.405-16.494 20.667 4.838 43.080 17.974 83.935 39.046 121.43 5.058 9.002 16.458 12.198 25.459 7.14 9.002-5.058 12.198-16.457 7.14-25.459-18.606-33.108-30.208-69.202-34.484-107.282-1.072-9.554-9.165-16.613-18.557-16.613z" />
<glyph unicode="&#xe919;" glyph-name="setting" d="M514.216-17.625c-55.578-0.002-89.433 13.881-91.458 14.735-6.477 2.729-10.814 8.929-11.16 15.949-0.354 7.203-0.674 14.411-0.995 21.62-0.618 13.918-1.258 28.308-2.144 42.355-0.528 8.348-1.026 8.606-2.882 9.565-6.768 3.498-14.647 6.115-22.988 8.885-7.208 2.396-14.663 4.872-22.014 8.124-4.522 2.002-8.72 4.269-12.78 6.462-4.658 2.516-9.058 4.893-13.099 6.385-4.536 1.684-10.599-3.223-21.657-14.138-2.721-2.686-5.535-5.464-8.398-7.986l-28.677-25.262c-5.973-5.262-14.664-6.054-21.49-1.959-94.436 56.663-123.893 127.006-125.1 129.972-2.65 6.509-1.333 13.962 3.386 19.169l27.559 30.403c2.249 2.48 4.537 4.933 6.75 7.306 4.302 4.612 8.369 8.971 12.107 13.455 0.13 0.706 0.501 4.332-3.149 12.645-1.414 3.219-2.916 6.413-4.507 9.792-2.322 4.931-4.722 10.032-6.912 15.4-2.281 5.586-3.907 11.449-5.481 17.117-3.557 12.817-6.274 21.337-11.419 22.918-15.533 4.775-32.261 5.205-49.971 5.659-6.924 0.178-14.082 0.362-21.28 0.819-7.944 0.503-14.649 6.089-16.58 13.811-26.709 106.838 2.204 177.411 3.448 180.363 2.729 6.478 8.93 10.816 15.951 11.16l74.988 3.68c8.107 25.621 18.96 50.296 32.39 73.637l-51.369 58.318c-5.261 5.973-6.053 14.664-1.958 21.489 56.663 94.431 127.005 123.892 129.971 125.099 6.512 2.65 13.964 1.333 19.172-3.387l59.184-53.648c20.77 10.568 42.865 19.247 65.957 25.908l3.987 81.221c0.344 7.020 4.683 13.22 11.159 15.949 2.952 1.244 73.52 30.163 180.364 3.449 7.722-1.931 13.307-8.636 13.811-16.579l5.416-85.444c23.346-7.107 45.867-16.432 67.231-27.84l62.866 56.98c5.209 4.721 12.663 6.035 19.17 3.387 2.967-1.208 73.315-30.664 129.973-125.1 4.095-6.825 3.303-15.516-1.958-21.489l-57.281-65.029c11.642-21.231 21.186-43.486 28.49-66.439l84.8-4.164c7.020-0.344 13.221-4.684 15.95-11.16 1.244-2.952 30.157-73.526 3.443-180.363-1.93-7.722-8.635-13.307-16.579-13.811l-83.734-5.309c-6.765-24.481-15.842-47.948-27.093-70.049l54.526-60.155c4.719-5.208 6.036-12.659 3.388-19.169-0.438-1.075-4.554-10.937-14.206-25.91-5.471-8.486-16.782-10.931-25.271-5.46-8.486 5.471-10.931 16.784-5.46 25.271 2.445 3.791 4.445 7.161 6.040 10.002l-54.737 60.387c-5.263 5.805-6.24 14.318-2.431 21.165 14.67 26.372 25.798 55.164 33.073 85.579 1.868 7.808 8.611 13.484 16.624 13.992l83.376 5.285c13.876 65.705 4.495 113.633-1.193 133.8l-85.226 4.184c-7.863 0.386-14.594 5.761-16.712 13.343-7.991 28.618-19.81 56.174-35.133 81.904-4.062 6.82-3.258 15.481 1.988 21.437l56.915 64.616c-36.649 56.273-77.173 83.529-95.455 93.768l-63.32-57.391c-5.9-5.35-14.585-6.263-21.47-2.256-25.766 14.99-53.602 26.53-82.734 34.297-7.589 2.024-13.038 8.669-13.535 16.508l-5.371 84.724c-65.21 13.728-113.473 4.38-133.804-1.263l-4.023-81.945c-0.394-8.037-5.998-14.871-13.801-16.833-29.217-7.345-56.767-18.161-81.885-32.145-6.849-3.813-15.364-2.836-21.17 2.428l-59.39 53.833c-18.325-10.365-59.081-37.885-95.503-93.725l51.192-58.119c5.343-6.064 6.068-14.917 1.786-21.771-17.211-27.544-30.331-57.328-38.993-88.524-2.109-7.594-8.848-12.982-16.719-13.368l-75.367-3.698c-5.621-20.255-14.964-68.428-1.318-133.528 2.093-0.061 4.211-0.116 6.367-0.171 19.396-0.498 39.451-1.014 59.774-7.262 24.665-7.58 31.163-30.993 35.907-48.087 1.352-4.871 2.628-9.471 4.1-13.076 1.831-4.483 3.925-8.936 6.144-13.651 1.621-3.443 3.297-7.006 4.903-10.662 11.41-25.984 5.193-41.804-2.031-50.5-4.455-5.365-9.139-10.386-13.667-15.241-2.223-2.382-4.322-4.634-6.398-6.923l-19.112-21.084c10.365-18.325 37.883-59.081 93.725-95.502l18.455 16.257c2.084 1.836 4.412 4.134 6.878 6.568 12.293 12.135 32.869 32.446 60.014 22.417 6.469-2.39 12.234-5.503 17.808-8.515 3.595-1.942 6.991-3.777 10.197-5.195 5.747-2.543 12.061-4.641 18.745-6.861 9.309-3.091 18.934-6.289 28.244-11.101 20.753-10.722 21.947-29.6 22.588-39.742 0.908-14.39 1.555-28.952 2.181-43.037 0.132-2.967 0.264-5.933 0.398-8.899 20.298-5.63 68.558-14.98 133.776-1.254l4.867 76.765c0.497 7.849 5.958 14.499 13.559 16.515 32.683 8.666 63.734 22.102 92.287 39.935 6.854 4.282 15.704 3.554 21.768-1.787l59.114-52.069c1.155 0.751 2.299 1.507 3.432 2.264 5.502 4.045 38.557 24.867 98.619 25.96 0.113 0.002 0.227 0.003 0.34 0.003 9.942 0 18.090-7.966 18.271-17.949 0.184-10.095-7.851-18.428-17.946-18.612-51.038-0.928-77.315-18.622-77.69-18.909-0.286-0.217-0.577-0.425-0.875-0.624-5.348-3.584-10.934-7.126-16.603-10.529-6.825-4.1-15.517-3.307-21.494 1.955l-59.315 52.245c-24.545-14.104-50.619-25.368-77.795-33.606l-4.911-77.467c-0.503-7.945-6.089-14.649-13.811-16.58-33.525-8.376-63.49-11.28-88.904-11.281zM517.457 223.062c-60.949 0-118.25 23.735-161.348 66.833s-66.832 100.398-66.832 161.348c0 60.948 23.735 118.247 66.833 161.344s100.399 66.831 161.347 66.831 118.25-23.735 161.348-66.831 66.833-100.397 66.833-161.344c0-60.949-23.735-118.251-66.833-161.348s-100.399-66.833-161.348-66.833zM517.457 642.855c-105.657 0-191.617-85.957-191.617-191.613 0-105.658 85.959-191.617 191.617-191.617s191.617 85.959 191.617 191.617c0 105.656-85.959 191.613-191.617 191.613z" />
<glyph unicode="&#xe91a;" glyph-name="share" d="M689.205 201.168c-32.14 0-61.344-12.792-82.803-33.547l-291.156 222.225c9.228 16.916 14.477 36.302 14.477 56.892 0 20.542-5.223 39.886-14.41 56.775l295.333 226.292c20.992-18.438 48.49-29.635 78.559-29.635 65.723 0 119.193 53.47 119.193 119.193 0 65.721-53.47 119.189-119.193 119.189-65.721 0-119.189-53.468-119.189-119.189 0-22.387 6.208-43.348 16.986-61.262l-294.068-225.324c-21.42 20.524-50.462 33.154-82.4 33.154-65.724 0-119.194-53.47-119.194-119.194 0-65.721 53.47-119.189 119.194-119.189 31.888 0 60.891 12.59 82.301 33.057l291.325-222.354c-9.020-16.77-14.146-35.933-14.146-56.272 0-65.724 53.468-119.194 119.189-119.194 65.723 0 119.193 53.47 119.193 119.194 0 65.721-53.47 119.189-119.192 119.189zM689.205 901.711c45.409 0 82.354-36.942 82.354-82.35s-36.944-82.354-82.354-82.354c-45.407 0-82.35 36.944-82.35 82.354 0 45.408 36.942 82.35 82.35 82.35zM210.535 364.389c-45.41 0-82.355 36.942-82.355 82.35 0 45.41 36.944 82.355 82.355 82.355 45.407 0 82.349-36.944 82.349-82.355 0-45.408-36.941-82.35-82.349-82.35zM689.205-0.374c-45.407 0-82.35 36.944-82.35 82.355 0 45.407 36.942 82.35 82.35 82.35s82.354-36.942 82.354-82.35c-0.001-45.411-36.944-82.355-82.354-82.355z" />
<glyph unicode="&#xe91b;" glyph-name="timer" d="M768.181 191.097c0-15.166 12.295-27.461 27.461-27.461s27.461 12.295 27.461 27.461v0c0 15.166-12.295 27.461-27.461 27.461s-27.461-12.295-27.461-27.461v0zM827.438 276.37c0-0.002 0-0.003 0-0.005 0-15.166 12.295-27.461 27.461-27.461s27.461 12.295 27.461 27.461c0 0.002 0 0.004 0 0.006v0c0 0.002 0 0.003 0 0.005 0 15.166-12.295 27.461-27.461 27.461s-27.461-12.295-27.461-27.461c0-0.002 0-0.004 0-0.006v0zM862.126 376.819c0-0.002 0-0.003 0-0.005 0-15.166 12.295-27.461 27.461-27.461s27.461 12.295 27.461 27.461c0 0.002 0 0.004 0 0.006v0c0 0.002 0 0.003 0 0.005 0 15.166-12.295 27.461-27.461 27.461s-27.461-12.295-27.461-27.461c0-0.002 0-0.004 0-0.006v0zM495.74 35.726c-236.308 0-428.534 192.226-428.534 428.534s192.226 428.534 428.534 428.534c233.417 0 425.643-190.058 428.534-423.475 0-13.73-10.84-25.293-25.293-25.293-13.73 0-25.293 10.84-25.293 25.293-2.891 205.956-171.992 373.612-377.948 373.612-208.847 0-377.948-169.824-377.948-377.948 0-208.847 169.824-377.948 377.948-377.948 72.265 0 142.363 20.234 202.343 58.535 11.562 7.227 27.461 4.336 34.687-7.949 7.227-11.562 4.336-27.461-7.949-34.687-67.929-44.082-147.421-67.207-229.081-67.207zM698.083 262.639c-5.781 0-11.562 2.168-16.621 6.504l-202.343 176.327c-5.781 5.059-8.672 11.562-8.672 18.789v257.987c0 13.73 11.562 25.293 25.293 25.293s25.293-11.562 25.293-25.293v-246.425l193.671-169.101c10.84-9.394 11.562-25.293 2.168-35.41-5.059-5.781-11.562-8.672-18.789-8.672z" />
<glyph unicode="&#xe91c;" glyph-name="top" d="M832.497 500.392c0-20.754 16.824-37.578 37.578-37.578s37.578 16.824 37.578 37.578v0c0 20.754-16.824 37.578-37.578 37.578s-37.578-16.824-37.578-37.578v0zM738.552 594.337c0-0.002 0-0.004 0-0.006 0-20.754 16.824-37.578 37.578-37.578s37.578 16.824 37.578 37.578c0 0.002 0 0.004 0 0.007v0c0 0.002 0 0.004 0 0.006 0 20.754-16.824 37.578-37.578 37.578s-37.578-16.824-37.578-37.578c0-0.002 0-0.004 0-0.007v0zM643.884 689.005c0-0.002 0-0.004 0-0.006 0-20.754 16.824-37.578 37.578-37.578s37.578 16.824 37.578 37.578c0 0.002 0 0.004 0 0.007v0c0 0.002 0 0.004 0 0.006 0 20.754-16.824 37.578-37.578 37.578s-37.578-16.824-37.578-37.578c0-0.002 0-0.004 0-0.007v0zM922.106 902.91h-788.415c-19.512 0-35.41-15.898-35.41-35.41s15.898-35.41 35.41-35.41h321.581l-309.296-309.296c-13.73-13.73-13.73-36.133 0-49.863 6.504-6.504 15.898-10.117 24.57-10.117s18.066 3.613 24.57 10.117l290.507 290.507v-747.946c0-19.512 15.898-35.41 35.41-35.41s35.41 15.898 35.41 35.41v750.114c13.73-12.285 34.687-12.285 48.418 1.445s13.73 36.133 0 49.863l-16.621 16.621h333.866c19.512 0 35.41 15.898 35.41 35.41 0 18.066-15.898 33.965-35.41 33.965z" />
<glyph unicode="&#xe91d;" glyph-name="up" d="M253.651 304.553c-6.504 0-13.008 2.168-18.066 7.227-10.117 10.117-10.117 26.016 0 35.41l231.972 231.972c10.117 10.117 23.848 15.898 39.023 15.898s28.183-5.781 39.023-15.898l231.249-231.249c10.117-10.117 10.117-26.016 0-35.41-10.117-10.117-26.016-10.117-35.41 0l-231.249 231.249c-2.168 2.168-4.336 2.168-5.781 0l-232.694-231.249c-5.059-5.059-11.562-7.949-18.066-7.949z" />
<glyph unicode="&#xe91e;" glyph-name="user" d="M703.4-35.074c-3.519 0-7.078 0.992-10.24 3.067-30.289 19.876-80.136 25.263-97.079 25.679h-22.12l-35.288-0.271c-0.048 0-0.095 0-0.143 0h-445.79c-10.326 0-18.697 8.371-18.697 18.697v22.468c-0.318 6.267-0.911 40.604 21.004 78.307 13.716 23.598 33.431 43.861 58.599 60.226 30.494 19.829 69.116 33.909 114.797 41.849 0.233 0.040 0.467 0.076 0.701 0.107 0.347 0.047 35.5 4.859 71.209 14.273 61.895 16.318 67.308 30.743 67.346 30.884 0.364 1.431 0.894 2.804 1.573 4.095 0.508 2.699 1.764 12.859-0.638 40.080-6.101 69.137-42.12 109.995-71.061 142.826-9.128 10.355-17.749 20.134-24.387 29.723-28.64 41.372-31.297 88.417-31.396 90.399-0.015 0.311-0.023 0.622-0.023 0.933 0 18.78 9.363 27.418 17.624 35.041l0.434 0.401c0.271 0.251 0.442 0.437 0.542 0.557 0.093 1.341-0.567 4.743-1.013 7.041-0.17 0.874-0.34 1.751-0.501 2.633-7.18 38.982-7.671 99.192-1.176 137.837 2.41 50.813 46.225 89.711 48.106 91.357 0.072 0.062 0.143 0.124 0.215 0.185 6.29 5.339 12.672 11.169 16.728 17.637 0.487 0.776 0.828 1.377 1.066 1.837-0.305 0.787-0.742 1.794-1.095 2.608-2.436 5.619-6.118 14.109-4.024 25.024 1.264 6.589 6.078 18.362 24.118 23.174 7.261 1.937 15.022 2.333 20.689 2.622l1.123 0.058c22.39 1.179 46.273 2.177 70.435 0.324 174.731-13.396 234.92-78.686 237.397-81.459 0.14-0.156 0.276-0.314 0.409-0.475 13.987-16.757 24.348-37.635 30.796-62.055 2.015-7.62 3.309-14.016 4.063-20.072 6.103-35.465 5.085-71.905 3.782-96.27-0.733-13.675-2.257-28.030-4.8-45.176-0.692-4.656 0.069-5.565 0.355-5.907 0.758-0.907 1.686-1.892 2.668-2.935 3.863-4.099 9.152-9.713 11.964-18.721 1.41-4.503 2.069-9.36 2.069-15.268 0-0.311-0.008-0.622-0.023-0.933-0.099-1.982-2.756-49.027-31.395-90.398-6.639-9.59-15.26-19.369-24.387-29.723-28.942-32.83-64.961-73.689-71.061-142.828-2.402-27.221-1.145-37.379-0.638-40.080 0.678-1.291 1.209-2.665 1.573-4.094 0.037-0.141 5.472-14.614 67.649-30.964 35.705-9.389 70.558-14.146 70.906-14.193 0.304-0.041 0.607-0.090 0.909-0.145 46.096-8.55 84.957-22.992 115.506-42.924 25.252-16.476 44.93-36.702 58.489-60.114 21.502-37.129 20.627-70.715 20.196-77.444v-22.333c0-10.326-8.371-18.697-18.697-18.697h-176.884c-10.326 0-18.697 8.371-18.697 18.697s8.371 18.697 18.697 18.697h158.189v4.311c0 0.687 0.009 1.106 0.082 1.769 0.104 1.508 1.627 28.332-16.349 58.131-10.82 17.938-26.59 33.609-46.87 46.581-26.1 16.693-59.762 28.968-100.053 36.483-4.64 0.643-39.013 5.565-75.081 15.060-70.762 18.629-87.964 39.353-93.189 54.396-4.004 7.766-6.245 23.195-2.985 60.153 7.181 81.369 49.42 129.282 80.261 164.268 8.747 9.922 16.301 18.491 21.693 26.28 21.12 30.511 24.438 66.3 24.765 70.606-0.033 2.252-0.261 3.223-0.362 3.55-0.249 0.798-1.897 2.547-3.49 4.239-1.25 1.327-2.668 2.833-4.136 4.587-7.95 9.504-10.783 21.079-8.66 35.385 2.368 15.961 3.781 29.206 4.449 41.684 1.951 36.502 0.914 63.748-3.364 88.341-0.057 0.326-0.105 0.655-0.145 0.983-0.531 4.438-1.531 9.354-3.148 15.469-4.987 18.884-12.727 34.771-23.007 47.233-1.714 1.748-15.385 15.125-45.883 29.676-54.883 26.183-120.791 35.849-166.417 39.348-21.935 1.681-44.442 0.733-65.614-0.383l-1.179-0.060c-1.766-0.090-4.736-0.242-7.558-0.526 2.448-5.841 5.453-14.632 2.296-25.136-1.185-3.94-3.003-7.792-5.723-12.129-6.732-10.733-15.924-19.236-24.055-26.145-1.597-1.442-34.223-31.356-35.351-65.738-0.029-0.87-0.118-1.737-0.267-2.594-5.972-34.304-5.569-90.781 0.898-125.894 0.14-0.765 0.289-1.526 0.436-2.283 1.98-10.205 5.295-27.284-10.88-42.202l-0.435-0.402c-2.087-1.925-4.944-4.561-5.416-5.469v0c0.003 0-0.133-0.427-0.165-1.584 0.328-4.296 3.654-40.060 24.764-70.555 5.392-7.788 12.946-16.357 21.693-26.28 30.841-34.985 73.079-82.899 80.26-164.266 3.26-36.959 1.019-52.388-2.985-60.154-5.226-15.043-22.428-35.767-93.189-54.396-36.365-9.574-71.006-14.497-75.189-15.074-39.834-6.958-73.196-18.883-99.16-35.445-20.186-12.876-35.971-28.599-46.92-46.732-18.282-30.282-17.133-57.861-17.055-59.336 0.050-0.543 0.054-0.868 0.054-1.434v-4.309l462.299 0.271c0.047 0 0.095 0 0.143 0h22.424c0.141 0 0.28-0.001 0.422-0.005 2.896-0.064 71.446-1.943 116.95-31.803 8.634-5.665 11.039-17.255 5.374-25.889-3.594-5.475-9.564-8.444-15.652-8.444zM631.467 270.124c0.454-0.368 0.89-0.757 1.306-1.165-0.394 0.387-0.829 0.778-1.306 1.165zM414.042 270.124c-0.472-0.383-0.902-0.769-1.292-1.152 0.411 0.402 0.843 0.787 1.292 1.152z" />
<glyph unicode="&#xe91f;" glyph-name="voice" d="M784.516 207.095c-6.127 0-12.089 3.161-15.405 8.832-4.968 8.499-2.107 19.416 6.392 24.384 40.793 23.847 74.989 57.998 98.89 98.759 24.612 41.971 37.62 90.028 37.62 138.978 0 48.531-12.801 96.233-37.018 137.946-23.514 40.5-57.206 74.589-97.438 98.579-8.456 5.042-11.223 15.983-6.181 24.439s15.984 11.225 24.439 6.18c45.423-27.086 83.463-65.572 110.011-111.299 27.37-47.144 41.838-101.034 41.838-155.844 0-55.283-14.702-109.577-42.516-157.011-26.987-46.021-65.595-84.577-111.651-111.503-2.827-1.655-5.924-2.441-8.98-2.441zM690.434 322.591c-6.127 0-12.089 3.161-15.405 8.832-4.968 8.499-2.108 19.415 6.392 24.383 20.928 12.236 38.472 29.757 50.733 50.669 12.619 21.521 19.29 46.169 19.29 71.276 0 24.895-6.563 49.359-18.981 70.749-12.062 20.777-29.348 38.266-49.987 50.574-8.456 5.042-11.223 15.983-6.181 24.439s15.984 11.223 24.439 6.18c25.83-15.403 47.464-37.289 62.56-63.294 15.571-26.82 23.801-57.474 23.801-88.648 0-31.442-8.365-62.323-24.187-89.308-15.347-26.172-37.303-48.099-63.495-63.412-2.826-1.654-5.924-2.441-8.978-2.441zM551.66 79.779c-32.26 0-64.338 21.915-68.867 25.129l-34.32 23.937c-8.075 5.631-10.055 16.742-4.424 24.817 5.631 8.074 16.742 10.054 24.817 4.423l34.521-24.078c9.045-6.386 38.869-23.338 56.298-17.406 6.282 2.138 12.216 4.156 12.942 37.056v647.165c-1.846 30.908-8.446 33.898-16.082 37.359-16.283 7.378-43.947-10.078-52.353-16.775l-0.458-0.355-212.527-159.109c-47.807-38.911-112.949-37.278-120.294-36.959-45.257-0.204-83.561-34.317-89.264-79.542l-1.235-12.259v-111.557l1.236-12.26c5.716-45.329 44.176-79.496 89.567-79.545 0.625 0.007 1.249 0.010 1.872 0.010 61.546 0 113.050-33.766 115.235-35.218 3.311-2.219 80.301-54.499 120.595-141.728 4.128-8.937 0.23-19.529-8.706-23.657-8.937-4.125-19.529-0.23-23.657 8.707-35.559 76.979-105.655 125.411-107.984 127-1.68 1.091-46.629 29.827-97.038 29.237l-0.211-0.002c-63.457 0-117.227 47.721-125.073 111.002l-0.046 0.406-1.437 14.256v115.139l1.483 14.663c7.846 63.278 61.615 110.997 125.073 110.997l0.994-0.028c0.533-0.027 57.849-2.577 96.618 29.171l0.611 0.478 212.637 159.191c1.98 1.556 12.953 9.955 27.48 16.706 23.096 10.737 44.397 12.294 61.6 4.498 8.731-3.956 17.791-9.175 24.907-20.477 7.007-11.127 10.846-26.318 12.081-47.809l0.030-1.023v-648.070l-0.004-0.191c-0.602-28.076-4.014-58.972-37.106-70.23-6.356-2.162-12.936-3.072-19.507-3.072z" />
<glyph unicode="&#xe920;" glyph-name="warning" d="M876.579 259.749l-16.621 28.906c0 0.723-0.723 0.723-0.723 1.445-28.183 40.469-46.25 84.55-57.090 134.414-1.445 5.781-2.168 12.285-3.613 18.066-2.168 13.73-15.176 23.125-28.906 20.957s-23.125-15.176-20.957-28.906c1.445-7.227 2.168-13.73 3.613-20.234 12.285-56.367 33.242-105.507 64.316-151.757l16.621-28.906c0-0.723 0.723-0.723 0.723-1.445 5.059-7.949 7.949-17.344 7.949-26.738 0-26.738-21.68-48.418-48.418-48.418h-558.611c-26.738 0-48.418 21.68-48.418 48.418 0 9.394 2.891 18.789 7.949 26.738 0 0.723 0.723 0.723 0.723 1.445l16.621 28.906c46.25 67.929 71.543 148.867 75.156 239.198 5.059 138.749 57.090 223.3 148.144 237.030 12.285 2.168 21.68 12.285 21.68 25.293 0 32.519 26.016 58.535 58.535 58.535s58.535-26.016 58.535-58.535c0-7.227 3.613-15.176 9.394-19.512 10.84-8.672 26.738-7.227 35.41 3.613 4.336 5.059 5.781 10.84 5.781 17.344-0.723 59.98-49.14 107.675-109.121 107.675-52.754 0-97.558-37.578-106.953-88.164-104.062-26.016-166.21-127.187-171.269-281.112-2.891-80.937-25.293-153.203-66.484-213.183 0-0.723-0.723-0.723-0.723-1.445l-16.621-28.906c-10.117-15.898-15.898-34.687-15.898-53.476 0-54.199 44.082-99.004 99.004-99.004h185.722c3.613-48.418 44.082-86.718 93.222-86.718s89.609 38.301 93.222 86.718h185.722c54.199 0 99.004 44.082 99.004 99.004-0.723 18.066-6.504 36.855-16.621 52.754zM513.807 63.91c-25.293 0-46.25 18.789-49.863 43.359h99.726c-3.613-24.57-24.57-43.359-49.863-43.359zM727.712 535.080c0-0.002 0-0.003 0-0.005 0-15.166 12.295-27.461 27.461-27.461s27.461 12.295 27.461 27.461c0 0.002 0 0.004 0 0.006v0c0 0.002 0 0.003 0 0.005 0 15.166-12.295 27.461-27.461 27.461s-27.461-12.295-27.461-27.461c0-0.002 0-0.004 0-0.006v0zM705.31 633.361c0-15.166 12.295-27.461 27.461-27.461s27.461 12.295 27.461 27.461v0c0 15.166-12.295 27.461-27.461 27.461s-27.461-12.295-27.461-27.461v0zM654.001 716.466c0-15.166 12.295-27.461 27.461-27.461s27.461 12.295 27.461 27.461v0c0 15.166-12.295 27.461-27.461 27.461s-27.461-12.295-27.461-27.461v0z" />
</font>
</defs>
</svg>
